<!-- Generator: Adobe Illustrator 21.1.0, SVG Export Plug-In  -->
<svg version="1.1"
	 xmlns="http://www.w3.org/2000/svg" xmlns:xlink="http://www.w3.org/1999/xlink" xmlns:a="http://ns.adobe.com/AdobeSVGViewerExtensions/3.0/"
	 x="0px" y="0px" width="43.7px" height="43.7px" viewBox="0 0 43.7 43.7"
	 style="overflow:scroll;enable-background:new 0 0 43.7 43.7;" xml:space="preserve">
<style type="text/css">
	.st0{fill:#FFFFFF;stroke:#FFFFFF;stroke-width:0.75;stroke-miterlimit:10;}
</style>
<defs>
</defs>
<g>
	<path class="st0" d="M40.5,3.7c-0.1-0.2-0.3-0.4-0.5-0.5c-4.9-2.5-10.6-3.4-16.2-2.4c-5.7,1-11,3.7-15.2,7.9S1.7,18,0.7,23.8
		C-0.2,29.4,0.7,35.1,3.2,40l0,0c0,0,0.1,0.1,0.1,0.1c0,0,0,0,0,0c0,0.1,0.1,0.1,0.1,0.1c0,0,0.1,0.1,0.1,0.1c0,0,0,0,0,0
		c0,0,0.1,0.1,0.1,0.1c0,0,0,0,0,0c3.6,1.8,7.7,2.8,11.8,2.8c1.5,0,2.9-0.1,4.4-0.4c5.7-1,11-3.7,15.2-7.9c4.2-4.2,6.9-9.4,7.9-15.2
		C43.8,14.3,43,8.5,40.5,3.7z M33.4,33.4c-5,5-11.5,7.6-18,7.6c-3.2,0-6.4-0.6-9.3-1.9l6.4-6.4l9,3c0.1,0,0.2,0.1,0.4,0.1
		c0.5,0,0.9-0.3,1.1-0.8c0.2-0.6-0.1-1.2-0.7-1.4l-7.9-2.6l7.9-7.9l7.5,1.5c0.1,0,0.1,0,0.2,0c0.5,0,1-0.4,1.1-0.9
		c0.1-0.6-0.3-1.2-0.9-1.3l-6-1.2l4.6-4.6c0.4-0.4,0.4-1.2,0-1.6c-0.4-0.4-1.2-0.4-1.6,0L21,21l0,0l-3.6,3.6l-2.6-8
		c-0.2-0.6-0.8-0.9-1.4-0.7c-0.6,0.2-0.9,0.8-0.7,1.4l2.9,9.1L4.5,37.5c-3.9-9.1-1.7-19.9,5.7-27.3C17.9,2.5,29.3,0.4,38.6,5
		C43.2,14.4,41.2,25.7,33.4,33.4z"/>
</g>
</svg>
