<!-- Generator: Adobe Illustrator 21.1.0, SVG Export Plug-In  -->
<svg version="1.1"
	 xmlns="http://www.w3.org/2000/svg" xmlns:xlink="http://www.w3.org/1999/xlink" xmlns:a="http://ns.adobe.com/AdobeSVGViewerExtensions/3.0/"
	 x="0px" y="0px" width="924.4px" height="65.8px" viewBox="0 0 924.4 65.8"
	 style="overflow:scroll;enable-background:new 0 0 924.4 65.8;" xml:space="preserve">
<style type="text/css">
	.st0{fill:none;stroke:#005648;stroke-miterlimit:10;}
	.st1{fill:#00AB90;}
</style>
<defs>
</defs>
<path class="st0" d="M434,65.3H123.8c-17.8,0-32.4-14.6-32.4-32.4v0c0-17.8,14.6-32.4,32.4-32.4H434c17.8,0,32.4,14.6,32.4,32.4v0
	C466.4,50.7,451.8,65.3,434,65.3z"/>
<g>
	<path class="st1" d="M40.6,45.8h7.2v-7.2h-7.2V45.8L40.6,45.8z M27,45.8h7.2v-7.2H27V45.8L27,45.8z M13.4,45.8h7.2v-7.2h-7.2V45.8
		L13.4,45.8z M40.6,31.1h7.2v-7.2h-7.2V31.1L40.6,31.1z M27,31.1h7.2v-7.2H27V31.1L27,31.1z M13.4,31.1h7.2v-7.2h-7.2V31.1
		L13.4,31.1z M49.8,6.5v5.3h6.1V55H5.3V11.8h8.4V17H19V1.8h-5.3v4.7H0v53.8h61.2V6.5H49.8L49.8,6.5z M40.9,11.8H22.6V6.5h18.4V1.8
		h5.3V2v15h-5.3V11.8L40.9,11.8z"/>
</g>
<path class="st1" d="M435.5,41.1l6.3-10.9c0.3-0.5-0.1-1-0.6-1h-12.6c-0.5,0-0.9,0.6-0.6,1l6.3,10.9
	C434.5,41.6,435.2,41.6,435.5,41.1z"/>
<path class="st0" d="M891.5,65.3H581.3c-17.8,0-32.4-14.6-32.4-32.4v0c0-17.8,14.6-32.4,32.4-32.4h310.2c17.8,0,32.4,14.6,32.4,32.4
	v0C923.9,50.7,909.3,65.3,891.5,65.3z"/>
<path class="st1" d="M893,41.1l6.3-10.9c0.3-0.5-0.1-1-0.6-1h-12.6c-0.5,0-0.9,0.6-0.6,1l6.3,10.9C892,41.6,892.7,41.6,893,41.1z"/>
</svg>
